# Blender 5.2.0 LTS
# www.blender.org
mtllib pyramid.mtl
o Pyramid
v 0.000000 1.500000 0.000000
v 1.000000 0.000000 -1.000000
v 1.000000 0.000000 1.000000
v -1.000000 0.000000 -1.000000
v -1.000000 0.000000 1.000000
vn -0.0000 0.5547 0.8321
vn -0.8321 0.5547 -0.0000
vn -0.0000 -1.0000 -0.0000
vn 0.8321 0.5547 -0.0000
vn -0.0000 0.5547 -0.8321
vt 0.298020 0.072081
vt 1.969264 -2.940796
vt 3.640507 0.072081
vt 0.118961 -2.940795
vt 0.296188 0.500000
vt -2.716690 -1.171244
vt 0.298020 3.414569
vt 3.640507 3.414569
vt -2.716690 2.171244
vt 0.118960 3.940796
s 0
usemtl Material
f 3/1/1 1/2/1 5/3/1
f 5/4/2 1/5/2 4/6/2
f 2/7/3 5/3/3 4/8/3
f 2/9/4 1/5/4 3/10/4
f 4/6/5 1/5/5 2/9/5
f 2/7/3 3/1/3 5/3/3
